# xmcd CD database file
#
# Track frame offsets:
#	150
#	22174
#	35839
#	50785
#	64784
#	83798
#	95512
#	107867
#	119999
#	131936
#
# Disc length: 2100 seconds
#
# Revision: 0
# Processed by: cddbd v1.5.1PL0 Copyright (c) Steve Scherf et al.
# Submitted via: CDex 1.51
#
DISCID=9e08320a
DTITLE=ダイソー - ジャズ・リラクゼーション 7
DYEAR=2004
DGENRE=Jazz
TTITLE0=CIELITO LINDO
TTITLE1=LA CUCARACHA
TTITLE2=LA GOLONDRINA
TTITLE3=EL HUMAHUAQUENO
TTITLE4=AY AY AY
TTITLE5=FAREWEEL JAMAICA
TTITLE6=VALS 'SOBRE LAS OLAS'
TTITLE7=ADELITA
TTITLE8=TICO TICO NO FUBA
TTITLE9=EL CHOCLO
EXTD=YEAR: 2004
EXTT0=
EXTT1=
EXTT2=
EXTT3=
EXTT4=
EXTT5=
EXTT6=
EXTT7=
EXTT8=
EXTT9=
PLAYORDER=
